<svg width="40" height="40" viewBox="0 0 40 40" fill="none" xmlns="http://www.w3.org/2000/svg">
<path d="M3.12187 16.9005L4.94982 15.0732L12.4718 22.5923L7.52199 27.5402L3.12448 23.1444C2.71417 22.7346 2.38862 22.248 2.16643 21.7124C1.94424 21.1768 1.82976 20.6028 1.82951 20.023C1.82927 19.4432 1.94328 18.869 2.16502 18.3332C2.38676 17.7975 2.7119 17.3106 3.12187 16.9005Z" fill="#FFCE00"/>
<path d="M22.5836 12.4802L27.5295 7.53624L37.2085 17.2115C37.9488 17.9515 38.3647 18.9553 38.3647 20.0019C38.3647 21.0485 37.9488 22.0523 37.2085 22.7924L35.0541 24.9459L22.5836 12.4802Z" fill="#FFCE00"/>
<path d="M15.0493 4.94531L17.8709 2.12484C18.4346 1.5613 19.1992 1.24471 19.9965 1.24471C20.7938 1.24471 21.5584 1.5613 22.1222 2.12484L24.9424 4.94401L19.9952 9.8893L15.0493 4.94531Z" fill="#FFCE00"/>
<path d="M15.1612 4.83935L7.51904 12.4785L12.4649 17.4225L20.1071 9.78334L15.1612 4.83935Z" fill="#FFCE00"/>
<path d="M13.8236 33.7626L18.7238 28.8643C18.7301 28.8581 18.7385 28.8546 18.7473 28.8546C18.7562 28.8546 18.7646 28.8581 18.7709 28.8643L24.9415 35.0325C24.9477 35.0388 24.9512 35.0472 24.9512 35.056C24.9512 35.0648 24.9477 35.0733 24.9415 35.0795L23.1135 36.9068C22.2928 37.7271 21.1797 38.188 20.0191 38.188C18.8584 38.188 17.7453 37.7271 16.9246 36.9068L13.825 33.8083C13.8219 33.8052 13.8194 33.8015 13.8177 33.7975C13.8161 33.7935 13.8152 33.7892 13.8152 33.7848C13.8152 33.7804 13.8161 33.7761 13.8177 33.7721C13.8194 33.768 13.8219 33.7644 13.825 33.7613L13.8236 33.7626Z" fill="#FFCE00"/>
<path d="M17.9553 17.1083L7.52069 27.5388L11.2876 31.3042L15.0655 27.5259L18.8527 23.7383C18.9999 23.5908 19.1747 23.4738 19.3672 23.394C19.5597 23.3141 19.766 23.273 19.9744 23.273C20.1828 23.273 20.3892 23.3141 20.5817 23.394C20.7742 23.4738 20.949 23.5908 21.0962 23.7383L24.9203 27.561L19.9735 32.5058L16.2325 36.2491L17.9959 38.0118C18.5274 38.5427 19.248 38.8409 19.9994 38.8409C20.7507 38.8409 21.4713 38.5427 22.0028 38.0118L32.4337 27.5868L21.9511 17.1083C21.6888 16.846 21.3773 16.6379 21.0345 16.4959C20.6917 16.354 20.3243 16.2809 19.9532 16.2809C19.5821 16.2809 19.2147 16.354 18.8719 16.4959C18.5291 16.6379 18.2176 16.846 17.9553 17.1083Z" fill="#FFCE00"/>
</svg>
